Patient4_TMGait_0pt4_03_left_12_EMG.mot
version=1
nRows=37
nColumns=33
inDegrees=no
endheader
time	1LAddLong	2LGlutMax	3LGlutMed	4LIliopsoas	5LSemiMemb	6LBicFemLong	7LRecFem	8LVastMed	9LVastLat	10LGasMed	11LTibAnt	12lTibPost	13LPeroneusLong	14LSol	15LExtDigLong	16LFlexDigLong	17RAddLong	18RGlutMax	19RGlutMed	20RIliopsoas	21RSemiMemb	22RBicFemLong	23RRecFem	24RVastMed	25RVastLat	26RGasMed	27RTibAnt	28RTibPost	29RPeroneusLong	30RSol	31RExtDigLong	32RFlexDigLong
15.887	-0.016632	0.14053	0.1358	-0.002899	-0.071716	0.053864	-0.17288	0.003357	0.08316	0.040283	-0.18402	0.04364	-0.24841	-0.016937	0.1358	-0.007629	0.023193	0.060272	-0.067291	0.045013	0.040283	0.003967	0.33768	-0.042419	-0.037842	-0.089417	0.023499	-0.070953	-0.34988	-0.98221	-0.001068	-0.027771
15.888	-0.004272	0.12528	-0.054321	-0.007019	-0.10483	0.042267	-0.18585	0.001373	-0.031128	0.023499	-0.19699	0.03479	-0.37384	0.016785	0.21713	-0.010834	0.00885	0.018463	-0.064392	-0.066986	0.037689	0.008545	0.35431	-0.07309	-0.039368	-0.065002	-0.054321	-0.30731	0.12268	-1.0432	0	-0.024719
15.889	0.000305	0.11292	-0.059052	0.00885	-0.044098	0.036316	-0.24597	-0.002899	-0.31586	0.029297	-0.03418	0.032501	-0.11063	0.062561	-0.10376	-0.009918	-0.024109	0.012054	-0.068665	-0.17197	0.041962	0.008087	0.34134	-0.017242	-0.038452	-0.034027	-0.047913	-0.010071	0.41382	-0.96497	0.001984	-0.021362
15.89	-0.003967	0.12131	-0.010376	0.010223	0.013275	0.056915	-0.38162	0.002747	-0.25726	0.026703	0.002747	0.026855	0.30716	0.087585	-0.097198	-0.005646	-0.052338	0.000305	-0.048981	-0.17532	0.033569	0.012512	0.36392	-0.025482	-0.016785	-0.054474	0.007629	-0.13641	0.30853	-0.24902	-0.000458	-0.029602
15.891	-0.00885	0.097351	-0.14328	0.01358	0.024261	0.027618	-0.40009	0.000305	-0.089874	0.040283	0.12421	0.021515	0.31464	0.13611	0.16434	-0.005798	-0.070038	-0.024567	0.079956	-0.041199	0.029449	0.015869	0.38284	-0.066986	-0.020752	-0.035248	0.015869	0.18524	0.1973	0.54733	0.003815	-0.027161
15.892	-0.00946	0.078735	-0.23239	-0.004578	-0.054474	0.019531	-0.30609	-0.002747	0.015869	0.027771	0.18295	0.031586	0.84015	0.15167	0.34744	0.007935	-0.060577	0.034485	0.012665	0.1799	0.032806	0.017853	0.38681	-0.018921	-0.023041	-0.015717	0.018158	0.24323	0.00351	0.59265	-0.00061	-0.018005
15.893	0.001526	0.14358	-0.16464	-0.016022	-0.1648	0.042572	-0.30701	-0.003662	0.055237	-0.027924	0.10971	0.019989	1.1259	0.19562	-0.15717	0.001526	-0.046082	0.009766	0.069275	0.33752	0.040741	-0.003967	0.34866	-0.01358	-0.018768	0.005035	0.031281	0.11963	0.075531	1.0495	0.000153	-0.003357
15.894	0.014954	0.12634	-0.10437	-0.00412	-0.15579	-0.045929	-0.31021	0.006409	0.0177	-0.03952	0.042419	0.005341	-0.16007	0.17685	-0.07782	0.000916	-0.012512	0.013428	0.037689	0.31204	0.031891	-0.000458	0.38025	-0.000458	-0.018005	0.00885	0.055847	-0.01358	0.18921	1.1717	0.001831	-0.000305
15.895	0.00351	0.079956	0.11047	0.007782	-0.050049	-0.12619	-0.31509	0.000305	0.046082	-0.039063	0.07309	-0.004578	-0.65124	0.16678	0.046844	0.000305	-0.019836	0.012817	0.064392	0.12924	0.03006	-0.007172	0.38727	-0.020599	-0.007019	0.003052	0.056305	-0.1207	0.1503	0.54031	-0.00061	-0.001831
15.896	0.00824	0.15198	0.063477	-0.005951	0.047455	-0.12634	-0.33768	-0.00351	0.065002	-0.015259	0.046082	0.017548	-0.62378	0.037689	-0.24872	-0.000458	-0.018921	-0.067596	-0.070801	0.010681	0.028381	0.017548	0.38803	-0.014496	-0.001221	0.006256	0.047455	0.13748	-0.022583	0.1709	0.001831	0.000305
15.897	0.002136	0.21133	0.093536	-0.013123	0.012665	-0.083466	-0.35156	-0.003662	0.097351	-0.030518	0.013733	-0.004883	-0.29907	-0.077209	-0.32242	-0.00351	0.010223	-0.065002	-0.1384	-0.037994	0.020294	0.000763	0.37231	-0.001068	-0.003662	0.014496	0.064392	0.053558	-0.27008	-0.1091	-0.000458	0.001984
15.898	0.005493	0.20065	-0.019073	-0.014954	0.072479	-0.071411	-0.3244	-0.012207	0.20462	-0.061798	-0.03067	0.005493	-0.037537	-0.17746	-0.18341	0.00061	0.036926	-0.062866	-0.16144	-0.087128	0.013428	0.012817	0.39612	-0.00473	-0.005798	0.020599	0.065002	-0.00351	-0.50736	0.041504	-0.000763	-0.014191
15.899	0.016937	0.16144	-0.14496	0.001526	0.025177	-0.084534	-0.34836	-0.006866	0.15274	-0.045776	0.006409	-0.002899	-0.12558	-0.26688	-0.060272	0.001221	0.035706	-0.098572	-0.22385	0.03006	0.010529	0.008545	0.36743	0.021515	-0.010986	0.020752	0.046844	-0.045166	-0.47241	-0.049133	-0.000305	-0.005188
15.9	0.010223	0.14206	-0.18356	0.015259	0.023956	-0.083771	-0.3392	0.006714	0.18387	-0.0354	0.032654	-0.020447	-0.025024	-0.28656	0.030975	-0.013733	0.046387	-0.12299	-0.2388	0.052185	0.018768	0.008392	0.36896	0.00824	-0.028381	0.013123	0.029297	-0.066528	-0.31281	-0.26962	0.000458	-0.004425
15.901	0.014801	0.1416	-0.068359	0.00351	0.035858	-0.056	-0.35751	0.016632	0.15747	-0.043793	0.10178	-0.01709	0.075226	-0.29159	0.17075	-0.00061	0.036621	-0.11917	-0.14938	-0.010376	0.007629	0.010681	0.38757	0.019226	0.002899	0.006409	0.00351	-0.10849	-0.058899	-0.26733	-0.000458	-0.02182
15.902	0.007629	0.20706	-0.024719	0.017242	0.031738	-0.029602	-0.37872	0.014343	0.17303	-0.019226	0.16159	-0.014648	0.054321	-0.233	0.037842	-0.012207	0.022736	-0.12863	-0.13504	-0.12482	0.026245	0.038147	0.41153	0.027466	0.005341	-0.03006	-0.003967	-0.097351	-0.029907	-0.51926	0.002747	-0.01358
15.903	0.001221	0.1944	-0.075684	0.030823	0.043945	0.024872	-0.31937	0.032349	0.029449	-0.002441	0.083618	-0.030365	0.55344	-0.080719	0.015564	-0.013275	0.069122	-0.18509	-0.19486	-0.034485	0.019684	0.025635	0.37369	0.020905	0.017242	-0.02533	-0.033569	0.028534	-0.065613	-0.44815	-0.006256	-0.014191
15.904	-0.000153	0.22903	0.10666	0.024872	-0.003357	0.089111	-0.31723	0.037384	-0.045929	-0.001526	-0.035248	-0.030365	0.51895	0.14313	0.36758	-0.010376	0.07309	-0.21271	-0.1387	0.042114	0.011597	0.033264	0.3743	0.006561	0.006409	-0.045471	-0.055084	0.059814	0.2562	-0.15762	0.000153	-0.018616
15.905	-0.008698	0.1828	0.028687	0.019684	-0.01709	0.10696	-0.29999	0.023804	-0.047913	0.061951	0.042572	-0.03006	0.14618	0.10834	0.53619	-0.000305	0.06073	-0.22644	-0.12955	0.069122	0.002747	0.023956	0.36377	-0.010223	-0.001221	-0.031586	-0.010681	0.045929	0.52536	0.6955	0.000305	-0.009155
15.906	-0.007782	0.15961	-0.058594	0.011444	-0.026855	0.13657	-0.20096	0.001526	-0.003662	0.10574	0.22293	-0.023041	0.10025	0.041046	0.048828	-0.009308	0.063782	-0.2211	-0.12589	0.00824	0.021515	0.013428	0.36529	-0.006104	-0.015411	-0.011444	0.000458	0.004425	0.56046	1.376	-0.001831	-0.008698
15.907	-0.007629	0.18021	-0.1207	-0.01358	-0.061951	0.13351	-0.19974	0.011292	0.035706	0.11429	0.044708	-0.023651	-0.4805	0.13977	-0.24674	-0.03067	0.076752	-0.21164	-0.19547	-0.088196	0.014038	0.02594	0.3862	-0.024719	-0.001678	-0.005188	0.034485	-0.014343	0.11734	1.3478	0.000763	-0.006866
15.908	-0.018921	0.20203	-0.001526	-0.018463	-0.06546	0.089417	-0.19379	-0.007324	0.047302	0.090637	-0.17731	-0.024872	-0.47241	0.14252	0.15152	-0.026093	0.077209	-0.19089	-0.33844	-0.098572	0.011749	0.01709	0.34759	-0.059814	-0.019226	-0.026855	0.070343	-0.053711	-0.22736	0.73471	0.001221	-0.011292
15.909	-0.032349	0.16266	-0.065918	0.015106	-0.11688	0.028076	-0.23056	0.001373	0.095367	-0.001221	-0.22705	-0.028229	0.26352	0.14633	-0.20935	-0.015106	0.014801	-0.19653	-0.2594	-0.076752	-0.003662	0.011292	0.35919	-0.063782	-0.02243	-0.020905	-0.003662	-0.004272	0.15808	0.44922	0.000458	-0.002747
15.91	-0.021362	0.20004	0.15213	-0.01358	-0.11917	-0.03891	-0.37308	0.02243	0.13306	-0.098572	0.001221	-0.026703	0.66879	0.17914	0.016327	-0.006256	0.027924	-0.15884	-0.084229	0.034943	0.001373	0.026703	0.35797	-0.049591	-0.028992	0.001526	-0.059204	-0.048523	0.46402	-0.072784	-0.000458	0.000153
15.911	-0.006409	0.17502	0.21194	-0.023499	0.052795	-0.06073	-0.40176	0.03067	0.19241	-0.060272	0.012207	-0.022278	0.5159	0.15442	-0.50598	-0.033875	0.009003	-0.15366	-0.14633	0.072784	-0.020905	0.009308	0.38773	-0.054626	-0.00473	0.01297	-0.036011	-0.089111	0.20218	-0.74814	0.002136	-0.002747
15.912	-0.000458	0.11063	-0.054932	-0.003967	0.030823	-0.020599	-0.30685	0.010529	0.28473	-0.085144	-0.16098	-0.025635	0.5127	0.24963	-0.28915	-0.021973	0.001068	-0.21713	-0.29037	0.015411	-0.029602	-0.002136	0.28885	-0.028534	-0.016479	0.025024	-0.013428	0.001678	-0.2446	-0.64209	0.00061	-0.001678
15.913	-0.00473	0.1001	-0.056305	-0.001373	-0.017548	-0.012207	-0.20355	-0.02533	0.31204	-0.080261	-0.13229	-0.02533	-0.42053	0.18082	-0.40237	-0.030975	0.023041	-0.21103	-0.29053	0.039978	-0.032196	0.018921	0.30868	-0.050354	-0.016937	0.041656	0.001526	-0.31097	-0.80673	-0.015869	0.001221	-0.005493
15.914	0.004425	0.058289	-0.10468	0.001526	-0.026855	0.062561	-0.18509	-0.027618	0.3656	-0.004883	0.038147	-0.026703	-0.048828	-0.18005	0.53543	-0.022278	0.04303	-0.2478	-0.34836	0.059052	-0.024109	0.027924	0.29358	-0.026398	-0.026245	0.02243	0.03418	-0.082703	-0.90195	-0.26062	0.001221	-0.013123
15.915	0.017548	0.027161	-0.27313	0.020294	-0.057526	0.1709	-0.15945	-0.034943	0.29266	-0.040131	0.14847	-0.02121	-0.04303	-0.2153	-0.1741	-0.017395	0.059357	-0.26611	-0.23987	0.14725	-0.018005	0.032349	0.34119	0.009308	-0.018311	-0.024719	0.034332	-0.092316	-0.85327	-0.26016	-0.001068	-0.018005
15.916	0.017242	0.057068	-0.29159	0.006409	-0.062561	0.050201	-0.103	-0.03418	-0.088196	-0.086365	0.099182	-0.024261	-0.53543	-0.087891	0.17044	-0.010986	0.033875	-0.20508	0.14069	0.14389	-0.007019	0.088196	0.38162	0.010681	-0.02243	-0.039368	0.016022	0.093231	0.081482	-0.3746	0.001678	-0.00885
15.917	0.005951	0.10208	-0.056	0.005035	-0.048218	0.020599	-0.089417	-0.026703	-0.233	-0.1178	-0.14603	-0.018005	-0.36255	-0.082397	-0.54474	-0.020905	-0.019226	-0.13977	0.19318	0.075836	0.00824	0.088348	0.3093	0.033875	-0.004883	-0.067749	-0.036926	0.27618	0.77026	-0.53574	-0.000153	-0.002594
15.918	0.014191	0.11749	-0.012665	0.007782	0.014343	0.055237	-0.13382	-0.007019	-0.14725	-0.064392	-0.096588	-0.012512	0.036316	-0.090179	-0.049744	-0.026855	-0.043793	-0.11658	0.031586	0.028839	0.016479	0.074005	0.38834	0.082245	-0.001221	-0.045319	-0.044556	0.12405	0.86838	-0.53726	0.002594	-0.007782
15.919	0.008087	0.15625	0.068054	-0.003815	0.048676	0.06424	-0.22644	-0.003815	-0.064545	-0.002747	-0.18021	-0.018158	-0.001984	-0.091248	-0.11322	-0.019684	-0.055847	-0.14526	-0.21515	-0.02121	0.019684	0.061951	0.38269	0.069885	-0.001526	-0.028534	-0.015411	0.059967	0.84213	-0.16968	0.005798	-0.004883
15.92	0.009003	0.14771	0.11246	0.019989	0.018463	0.063629	-0.23224	0.000305	0.001526	-0.016937	-0.38498	-0.025177	0.043488	-0.06958	-0.11978	-0.014801	-0.001373	-0.15839	-0.024109	-0.019531	0.008087	0.06546	0.41382	0.046844	0.007019	0.002747	0.015411	0.072327	0.44525	0.73883	0.001526	0.000916
15.921	0.010986	0.15701	-0.025024	0.019531	0.008392	-0.044861	-0.22736	-0.004578	0.033112	-0.022583	-0.20508	-0.014191	-0.013733	-0.11398	-0.090942	-0.006561	-0.009766	-0.12024	-0.071869	0.053406	-0.017395	0.028992	0.38757	0.046692	0.00412	0.0177	0.026245	0.018311	0.35156	0.59937	0.001984	0.000153
15.922	0.006104	0.15701	0.049438	0.015411	0.027618	-0.082092	-0.22797	0.002289	0.039978	0.010834	0.048523	-0.014954	-0.06012	-0.20783	-0.22995	-0.023804	0.033264	-0.13626	-0.081177	-0.018311	-0.024261	0.055389	0.34088	0.039368	0.014954	0.028839	0.036163	0.026855	0.36819	0.5043	-0.001221	0.002747
15.923	-0.007935	0.15274	0.17197	0.00946	-0.025482	-0.12619	-0.1683	0.006256	0.029297	-0.003052	0.054016	-0.013428	0.065765	-0.083466	-0.13565	-0.001526	0.047607	-0.1265	-0.22827	-0.034485	-0.045776	0.03952	0.30853	-0.064545	0.007324	0.027924	-0.011139	-0.023193	0.39688	0.35111	0.004883	0.006714
